<?xml version="1.0" encoding="UTF-8" standalone="no"?>
<svg
   version="1.1"
   viewBox="0 0 512 512"
   id="svg271"
   sodipodi:docname="icon.svg"
   inkscape:version="1.1.2 (0a00cf5339, 2022-02-04)"
   xmlns:inkscape="http://www.inkscape.org/namespaces/inkscape"
   xmlns:sodipodi="http://sodipodi.sourceforge.net/DTD/sodipodi-0.dtd"
   xmlns="http://www.w3.org/2000/svg"
   xmlns:svg="http://www.w3.org/2000/svg">
  <defs
     id="defs275">
    <filter
       style="color-interpolation-filters:sRGB;"
       inkscape:label="Drop Shadow"
       id="filter4960"
       x="-0.028124911"
       y="-0.032142714"
       width="1.0621092"
       height="1.0709818">
      <feFlood
         flood-opacity="0.34999999999999998"
         flood-color="rgb(0,0,0)"
         result="flood"
         id="feFlood4950" />
      <feComposite
         in="flood"
         in2="SourceGraphic"
         operator="in"
         result="composite1"
         id="feComposite4952" />
      <feGaussianBlur
         in="composite1"
         stdDeviation="6"
         result="blur"
         id="feGaussianBlur4954" />
      <feOffset
         dx="3"
         dy="3"
         result="offset"
         id="feOffset4956" />
      <feComposite
         in="SourceGraphic"
         in2="offset"
         operator="over"
         result="composite2"
         id="feComposite4958" />
    </filter>
  </defs>
  <sodipodi:namedview
     id="namedview273"
     pagecolor="#ffffff"
     bordercolor="#666666"
     borderopacity="1.0"
     inkscape:pageshadow="2"
     inkscape:pageopacity="0.0"
     inkscape:pagecheckerboard="0"
     showgrid="false"
     inkscape:zoom="0.57763672"
     inkscape:cx="-537.53508"
     inkscape:cy="161.86644"
     inkscape:window-width="3424"
     inkscape:window-height="1392"
     inkscape:window-x="8"
     inkscape:window-y="40"
     inkscape:window-maximized="0"
     inkscape:current-layer="svg271" />
  <circle
     style="fill:#84cc16;stroke-width:0.998441;fill-opacity:1;opacity:1"
     id="path381"
     cx="256"
     cy="256"
     r="256" />
  <g
     id="g1370"
     transform="matrix(0.70327907,0,0,0.70327907,75.960799,53.960262)"
     style="opacity:1;filter:url(#filter4960)">
    <path
       d="m 512,287.9 -0.004,112 C 511.1,444.1 476.1,480 432,480 405.53,480 384,458.44 384,431.94 V 304.1 c 0,-26.5 21.5,-48.1 48,-48.1 10.83,0 20.91,2.723 30.3,6.678 C 449.7,159.098 362.1,80.128 256,80.128 c -106.1,0 -193.71,78.97 -206.3,182.57 9.39,-4 19.47,-6.7 30.3,-6.7 26.5,0 48,21.6 48,48.1 v 127.9 c 0,26.4 -21.5,48 -48,48 -44.11,0 -79.1,-35.88 -79.1,-80.06 L 0,287.998 c 0,-141.2 114.8,-256 256,-256 140.9,0 256.5,114.56 256,255.36 0,0.2 0,0 -0.002,0.54451 z"
       fill="currentColor"
       id="path267"
       style="fill:#ffffff" />
    <path
       d="M 364,347 V 208.14 c 0,-12.782 -10.366,-23.143 -23.143,-23.143 h -146.57 c -25.563,0 -46.286,20.723 -46.286,46.286 v 154.29 c 0,25.563 20.723,46.286 46.286,46.286 h 154.29 c 8.5195,0 15.429,-6.9091 15.429,-14.995 0,-5.6507 -3.1855,-10.376 -7.7143,-13.066 v -39.227 c 4.725,-4.6479 7.7143,-10.723 7.7143,-17.569 z M 216.99,246.71 h 92.572 c 4.6768,0 8.1482,3.4714 8.1482,7.7143 0,4.2429 -3.4714,7.7143 -7.7143,7.7143 h -93.006 c -3.8089,0 -7.2804,-3.4714 -7.2804,-7.7143 0,-4.2429 3.4714,-7.7143 7.2804,-7.7143 z m 0,30.857 h 92.572 c 4.6768,0 8.1482,3.4714 8.1482,7.7143 0,4.2429 -3.4714,7.7143 -7.7143,7.7143 h -93.006 c -3.8089,0 -7.2804,-3.4714 -7.2804,-7.7143 0,-4.2429 3.4714,-7.7143 7.2804,-7.7143 z m 116.15,123.43 H 194.28 c -8.5195,0 -15.429,-6.9091 -15.429,-15.429 0,-8.5195 6.9091,-15.429 15.429,-15.429 h 138.86 z"
       fill="currentColor"
       id="path269"
       style="fill:#ffffff" />
  </g>
</svg>
