<svg fill="none" version="1.1" viewBox="0 0 34 39"
  xmlns="http://www.w3.org/2000/svg">
  <path d="m13.8 17.1v9.27h-1.54v-7.42l-2.27 0.774v-1.3l3.6-1.33h0.197zm9.24 3.78v1.6a8.53 8.53 0 0 1-0.066 1.1q-0.155 1.2-0.68 1.91-0.746 1.01-2.27 1.01a3.61 3.61 0 0 1-0.904-0.106 2.42 2.42 0 0 1-1.35-0.881 3.24 3.24 0 0 1-0.49-0.948q-0.276-0.818-0.287-1.98v-1.6a8.6 8.6 0 0 1 0.059-1.04q0.151-1.23 0.687-1.95a2.4 2.4 0 0 1 1.46-0.914 3.79 3.79 0 0 1 0.819-0.083 3.75 3.75 0 0 1 0.893 0.1 2.38 2.38 0 0 1 1.37 0.871 3.15 3.15 0 0 1 0.472 0.906q0.149 0.437 0.223 0.974a8.21 8.21 0 0 1 0.07 1.03zm-1.54 1.96v-2.09a7.6 7.6 0 0 0-0.027-0.66q-0.057-0.654-0.237-1.07a1.7 1.7 0 0 0-0.092-0.181 1.16 1.16 0 0 0-0.832-0.581 1.69 1.69 0 0 0-0.298-0.025 1.56 1.56 0 0 0-0.452 0.062 1.14 1.14 0 0 0-0.659 0.512 1.95 1.95 0 0 0-0.197 0.447q-0.141 0.454-0.17 1.12a7.96 7.96 0 0 0-7e-3 0.225v2.09a7.43 7.43 0 0 0 0.029 0.677q0.073 0.797 0.333 1.25a1.25 1.25 0 0 0 0.395 0.434q0.238 0.157 0.557 0.191a1.72 1.72 0 0 0 0.184 0.01 1.47 1.47 0 0 0 0.464-0.069 1.15 1.15 0 0 0 0.634-0.518 2 2 0 0 0 0.195-0.451q0.167-0.542 0.18-1.39z" fill="#3f3f46"/>
  <path d="m1 22c0 8.84 7.16 16 16 16s16-7.16 16-16-7.16-16-16-16" stroke="#3f3f46" stroke-width="1.5"/>
  <path d="M17 0L9 6l8 6V0z" fill="#3f3f46"/>
</svg>
